<svg width="73" height="48" viewBox="0 0 73 48" fill="none" xmlns="http://www.w3.org/2000/svg">
<path d="M66.4727 8.58792C56.8307 -7.0363 42.3059 3.83366 42.3059 3.83366C41.3639 4.53585 39.6269 5.11318 38.4466 5.11587L34.5561 5.11856C33.3759 5.1199 31.6389 4.54257 30.6982 3.84037C30.6982 3.84037 16.172 -7.03227 6.5287 8.59195C-3.11189 24.2108 0.773204 41.2206 0.773204 41.2206C1.45384 45.3854 3.69723 48.1647 7.93081 47.8156C12.1521 47.4679 21.3149 36.5993 21.3149 36.5993C22.0718 35.7037 23.6577 34.972 24.8352 34.972L48.1594 34.968C49.3382 34.968 50.9228 35.6997 51.6783 36.5952C51.6783 36.5952 60.8424 47.4638 65.0705 47.8116C69.2987 48.1607 71.5475 45.3787 72.2241 41.2166C72.2227 41.2166 76.1146 24.2094 66.4727 8.58792ZM27.7347 21.3053H22.7334V26.0596C22.7334 26.0596 21.6743 26.8571 20.0353 26.837C18.3991 26.8128 17.6585 25.967 17.6585 25.967V21.3067H12.9349C12.9349 21.3067 12.3454 20.7105 12.1875 19.141C12.0324 17.5715 12.8396 16.3027 12.8396 16.3027H17.8423V11.3699C17.8423 11.3699 18.8714 10.8261 20.3511 10.8677C21.8322 10.9134 22.9171 11.4625 22.9171 11.4625L22.8967 16.3013H27.6204C27.6204 16.3013 28.4453 17.3459 28.5134 18.608C28.5814 19.8714 27.7347 21.3053 27.7347 21.3053ZM50.675 26.7242C48.4847 26.7242 46.7191 24.9774 46.7191 22.8198C46.7191 20.6582 48.4847 18.9154 50.675 18.9154C52.8558 18.9154 54.635 20.6582 54.635 22.8198C54.635 24.9788 52.8558 26.7242 50.675 26.7242ZM50.675 15.9818C48.4847 15.9818 46.7191 14.2364 46.7191 12.0788C46.7191 9.91712 48.4847 8.17439 50.675 8.17439C52.8558 8.17439 54.635 9.91712 54.635 12.0788C54.635 14.2377 52.8558 15.9818 50.675 15.9818ZM60.5334 21.7484C58.3431 21.7484 56.5775 20.003 56.5775 17.844C56.5775 15.6837 58.3431 13.9397 60.5334 13.9397C62.7142 13.9397 64.4934 15.6837 64.4934 17.844C64.4934 20.003 62.7142 21.7484 60.5334 21.7484Z" fill="white"/>
</svg>
