<svg width="8" height="10" viewBox="0 0 8 10" fill="none" xmlns="http://www.w3.org/2000/svg">
<path d="M5.77772 9.00006H2.22216C1.86854 9.00006 1.5294 8.84203 1.27935 8.56072C1.0293 8.27942 0.888828 7.89789 0.888828 7.50006V2.50006C0.888828 2.36745 0.842003 2.24028 0.758653 2.14651C0.675304 2.05274 0.562257 2.00006 0.444383 2.00006C0.326509 2.00006 0.213463 2.05274 0.130114 2.14651C0.0467642 2.24028 -6.10352e-05 2.36745 -6.10352e-05 2.50006V7.50006C-6.10352e-05 8.1631 0.234065 8.79899 0.650813 9.26783C1.06756 9.73667 1.63279 10.0001 2.22216 10.0001H5.77772C5.89559 10.0001 6.00864 9.94738 6.09199 9.85361C6.17534 9.75985 6.22216 9.63267 6.22216 9.50006C6.22216 9.36745 6.17534 9.24028 6.09199 9.14651C6.00864 9.05274 5.89559 9.00006 5.77772 9.00006ZM7.99994 3.47006C7.99531 3.42413 7.98637 3.37888 7.97327 3.33506V3.29006C7.9519 3.23865 7.9234 3.19139 7.88883 3.15006L5.22216 0.150061C5.18542 0.111169 5.14341 0.0791015 5.09772 0.055061H5.05772L4.91549 6.10352e-05H3.11105C2.75743 6.10352e-05 2.41829 0.158096 2.16824 0.439401C1.91819 0.720706 1.77772 1.10224 1.77772 1.50006V6.50006C1.77772 6.89789 1.91819 7.27942 2.16824 7.56072C2.41829 7.84203 2.75743 8.00006 3.11105 8.00006H6.66661C7.02023 8.00006 7.35937 7.84203 7.60942 7.56072C7.85946 7.27942 7.99994 6.89789 7.99994 6.50006V3.50006V3.47006ZM5.33327 1.70506L6.48438 3.00006H5.77772C5.65984 3.00006 5.5468 2.94738 5.46345 2.85361C5.3801 2.75985 5.33327 2.63267 5.33327 2.50006V1.70506ZM7.11105 6.50006C7.11105 6.63267 7.06423 6.75985 6.98088 6.85361C6.89753 6.94738 6.78448 7.00006 6.66661 7.00006H3.11105C2.99318 7.00006 2.88013 6.94738 2.79678 6.85361C2.71343 6.75985 2.66661 6.63267 2.66661 6.50006V1.50006C2.66661 1.36745 2.71343 1.24028 2.79678 1.14651C2.88013 1.05274 2.99318 1.00006 3.11105 1.00006H4.44438V2.50006C4.44438 2.89789 4.58486 3.27942 4.83491 3.56072C5.08496 3.84203 5.42409 4.00006 5.77772 4.00006H7.11105V6.50006Z" fill="#FFD0D0"/>
</svg>
