<svg width="64" height="57" viewBox="0 0 64 57" fill="none" xmlns="http://www.w3.org/2000/svg">
<path d="M5.16641 10.1666L17.4164 18.3333L29.6256 1.24164C29.8954 0.863552 30.2516 0.555367 30.6645 0.342732C31.0775 0.130098 31.5353 0.019165 31.9997 0.019165C32.4642 0.019165 32.922 0.130098 33.335 0.342732C33.7479 0.555367 34.1041 0.863552 34.3739 1.24164L46.5831 18.3333L58.8331 10.1666C59.2967 9.85819 59.8389 9.68891 60.3957 9.67879C60.9524 9.66867 61.5004 9.81814 61.975 10.1095C62.4495 10.4009 62.8307 10.8221 63.0735 11.3232C63.3163 11.8243 63.4106 12.3845 63.3452 12.9375L58.5531 53.6746C58.4695 54.384 58.1284 55.0382 57.5946 55.5129C57.0607 55.9876 56.3712 56.2499 55.6568 56.25H8.34266C7.62827 56.2499 6.93876 55.9876 6.40491 55.5129C5.87106 55.0382 5.53 54.384 5.44641 53.6746L0.654331 12.9346C0.58958 12.3818 0.684329 11.8221 0.927391 11.3214C1.17045 10.8207 1.55168 10.4001 2.02607 10.1091C2.50046 9.81806 3.04821 9.66884 3.60465 9.67904C4.1611 9.68925 4.70301 9.85844 5.16641 10.1666ZM31.9997 38.75C33.5468 38.75 35.0306 38.1354 36.1245 37.0414C37.2185 35.9475 37.8331 34.4637 37.8331 32.9166C37.8331 31.3695 37.2185 29.8858 36.1245 28.7919C35.0306 27.6979 33.5468 27.0833 31.9997 27.0833C30.4527 27.0833 28.9689 27.6979 27.875 28.7919C26.781 29.8858 26.1664 31.3695 26.1664 32.9166C26.1664 34.4637 26.781 35.9475 27.875 37.0414C28.9689 38.1354 30.4527 38.75 31.9997 38.75Z" fill="white"/>
</svg>
