<svg width="42" height="48" viewBox="0 0 42 48" fill="none" xmlns="http://www.w3.org/2000/svg">
<path d="M16.656 20.1359C15.288 20.1359 14.208 21.3359 14.208 22.7999C14.208 24.2639 15.312 25.4639 16.656 25.4639C18.024 25.4639 19.104 24.2639 19.104 22.7999C19.128 21.3359 18.024 20.1359 16.656 20.1359ZM25.416 20.1359C24.048 20.1359 22.968 21.3359 22.968 22.7999C22.968 24.2639 24.072 25.4639 25.416 25.4639C26.784 25.4639 27.864 24.2639 27.864 22.7999C27.864 21.3359 26.784 20.1359 25.416 20.1359Z" fill="white"/>
<path d="M37.08 0H4.92C2.208 0 0 2.208 0 4.944V37.392C0 40.128 2.208 42.336 4.92 42.336H32.136L30.864 37.896L33.936 40.752L36.84 43.44L42 48V4.944C42 2.208 39.792 0 37.08 0ZM27.816 31.344C27.816 31.344 26.952 30.312 26.232 29.4C29.376 28.512 30.576 26.544 30.576 26.544C29.592 27.192 28.656 27.648 27.816 27.96C26.616 28.464 25.464 28.8 24.336 28.992C22.2805 29.3704 20.1725 29.3623 18.12 28.968C16.915 28.7322 15.7341 28.3868 14.592 27.936C13.99 27.7045 13.4046 27.4319 12.84 27.12C12.768 27.072 12.696 27.048 12.624 27C12.576 26.976 12.552 26.952 12.528 26.928C12.096 26.688 11.856 26.52 11.856 26.52C11.856 26.52 13.008 28.44 16.056 29.352C15.336 30.264 14.448 31.344 14.448 31.344C9.144 31.176 7.128 27.696 7.128 27.696C7.128 19.968 10.584 13.704 10.584 13.704C14.04 11.112 17.328 11.184 17.328 11.184L17.568 11.472C13.248 12.72 11.256 14.616 11.256 14.616C11.256 14.616 11.784 14.328 12.672 13.92C15.24 12.792 17.28 12.48 18.12 12.408C18.264 12.384 18.384 12.36 18.528 12.36C22.6898 11.7967 26.9225 12.5877 30.6 14.616C30.6 14.616 28.704 12.816 24.624 11.568L24.96 11.184C24.96 11.184 28.248 11.112 31.704 13.704C31.704 13.704 35.16 19.968 35.16 27.696C35.16 27.696 33.12 31.176 27.816 31.344Z" fill="white"/>
</svg>
