<svg width="64" height="66" viewBox="0 0 64 66" fill="none" xmlns="http://www.w3.org/2000/svg">
<path d="M51.3957 6.31251L53.1749 17.5708L63.4124 22.7917L58.2499 33L63.4416 43.2083L53.1166 48.4292L51.3374 59.6875L39.9916 57.9083L31.9124 65.9583L23.8041 57.7917L12.5457 59.6583L10.7374 48.3125L0.558228 43.1208L5.74989 32.9125L0.587394 22.7917L10.8249 17.5125L12.6041 6.34168L23.8916 8.20835L31.9999 0.0125122L40.0791 8.09168L51.3957 6.31251ZM24.7082 18.4167C23.5479 18.4167 22.4351 18.8776 21.6146 19.6981C20.7942 20.5186 20.3332 21.6314 20.3332 22.7917C20.3332 23.952 20.7942 25.0648 21.6146 25.8853C22.4351 26.7057 23.5479 27.1667 24.7082 27.1667C25.8686 27.1667 26.9813 26.7057 27.8018 25.8853C28.6223 25.0648 29.0832 23.952 29.0832 22.7917C29.0832 21.6314 28.6223 20.5186 27.8018 19.6981C26.9813 18.8776 25.8686 18.4167 24.7082 18.4167ZM39.2916 38.8333C38.1312 38.8333 37.0184 39.2943 36.198 40.1148C35.3775 40.9352 34.9166 42.048 34.9166 43.2083C34.9166 44.3687 35.3775 45.4815 36.198 46.3019C37.0184 47.1224 38.1312 47.5833 39.2916 47.5833C40.4519 47.5833 41.5647 47.1224 42.3852 46.3019C43.2056 45.4815 43.6666 44.3687 43.6666 43.2083C43.6666 42.048 43.2056 40.9352 42.3852 40.1148C41.5647 39.2943 40.4519 38.8333 39.2916 38.8333ZM21.5291 47.5833L46.5832 22.5292L42.4707 18.4167L17.4166 43.4708L21.5291 47.5833Z" fill="white"/>
</svg>
