<svg width="52" height="72" viewBox="0 0 52 72" fill="none" xmlns="http://www.w3.org/2000/svg">
<path d="M34.4375 41.1974C31.7664 42.0245 28.9316 42.4687 26 42.4687C23.0684 42.4687 20.2335 42.0245 17.5625 41.1974V49.5207C17.5625 52.9028 16.9308 56.205 15.6878 59.3437H36.3121C35.0692 56.2051 34.4375 52.9028 34.4375 49.5207V41.1974Z" fill="white"/>
<path d="M13.5721 63.5625C12.6412 65.0692 11.5613 66.4791 10.3392 67.7812H2.79688V72H49.2031V67.7812H41.661C40.4388 66.4791 39.359 65.0692 38.428 63.5625H13.5721Z" fill="white"/>
<path d="M50.8724 9.36816H47.0783V5.14941H51.3377L51.9057 0H0.0943604L0.662345 5.14941H4.92174V9.36816H1.12767L1.69566 14.5176H50.3045L50.8724 9.36816ZM14.2899 9.36816H9.60581V5.14941H14.2899V9.36816ZM23.658 9.36816H18.974V5.14941H23.658V9.36816ZM33.0261 9.36816H28.342V5.14941H33.0261V9.36816ZM42.3942 9.36816H37.7101V5.14941H42.3942V9.36816Z" fill="white"/>
<path d="M26 38.25C37.6685 38.25 47.5378 29.995 49.7503 18.7362H2.24969C4.46215 29.995 14.3315 38.25 26 38.25Z" fill="white"/>
</svg>
