<svg width="24" height="16" viewBox="0 0 24 16" fill="none" xmlns="http://www.w3.org/2000/svg">
<path d="M7 5.00006V4.00006C7 3.73484 6.89464 3.48049 6.70711 3.29295C6.51957 3.10542 6.26522 3.00006 6 3.00006C5.73478 3.00006 5.48043 3.10542 5.29289 3.29295C5.10536 3.48049 5 3.73484 5 4.00006V5.00006H4C3.73478 5.00006 3.48043 5.10542 3.29289 5.29295C3.10536 5.48049 3 5.73484 3 6.00006C3 6.26528 3.10536 6.51963 3.29289 6.70717C3.48043 6.8947 3.73478 7.00006 4 7.00006H5V8.00006C5 8.26528 5.10536 8.51963 5.29289 8.70717C5.48043 8.8947 5.73478 9.00006 6 9.00006C6.26522 9.00006 6.51957 8.8947 6.70711 8.70717C6.89464 8.51963 7 8.26528 7 8.00006V7.00006H8C8.26522 7.00006 8.51957 6.8947 8.70711 6.70717C8.89464 6.51963 9 6.26528 9 6.00006C9 5.73484 8.89464 5.48049 8.70711 5.29295C8.51957 5.10542 8.26522 5.00006 8 5.00006H7ZM9.318 1.00006H14.682C15.586 0.400035 16.6359 0.0563864 17.7197 0.00569756C18.8036 -0.0449913 19.8809 0.199177 20.8369 0.712209C21.793 1.22524 22.5921 1.98793 23.1491 2.91909C23.7061 3.85025 24.0002 4.91502 24 6.00006C24 9.31406 21.314 16.0001 18 16.0001C16.024 16.0001 14.271 13.6221 13.178 11.0001H10.822C9.73 13.6221 7.976 16.0001 6 16.0001C2.686 16.0001 6.94151e-08 9.31406 6.94151e-08 6.00006C-0.000164952 4.91502 0.293902 3.85025 0.850897 2.91909C1.40789 1.98793 2.20696 1.22524 3.16305 0.712209C4.11914 0.199177 5.19645 -0.0449913 6.2803 0.00569756C7.36415 0.0563864 8.41397 0.400035 9.318 1.00006ZM18 5.00006C18.2652 5.00006 18.5196 4.8947 18.7071 4.70717C18.8946 4.51963 19 4.26528 19 4.00006C19 3.73484 18.8946 3.48049 18.7071 3.29295C18.5196 3.10542 18.2652 3.00006 18 3.00006C17.7348 3.00006 17.4804 3.10542 17.2929 3.29295C17.1054 3.48049 17 3.73484 17 4.00006C17 4.26528 17.1054 4.51963 17.2929 4.70717C17.4804 4.8947 17.7348 5.00006 18 5.00006ZM16 7.00006C16.2652 7.00006 16.5196 6.8947 16.7071 6.70717C16.8946 6.51963 17 6.26528 17 6.00006C17 5.73484 16.8946 5.48049 16.7071 5.29295C16.5196 5.10542 16.2652 5.00006 16 5.00006C15.7348 5.00006 15.4804 5.10542 15.2929 5.29295C15.1054 5.48049 15 5.73484 15 6.00006C15 6.26528 15.1054 6.51963 15.2929 6.70717C15.4804 6.8947 15.7348 7.00006 16 7.00006ZM20 7.00006C20.2652 7.00006 20.5196 6.8947 20.7071 6.70717C20.8946 6.51963 21 6.26528 21 6.00006C21 5.73484 20.8946 5.48049 20.7071 5.29295C20.5196 5.10542 20.2652 5.00006 20 5.00006C19.7348 5.00006 19.4804 5.10542 19.2929 5.29295C19.1054 5.48049 19 5.73484 19 6.00006C19 6.26528 19.1054 6.51963 19.2929 6.70717C19.4804 6.8947 19.7348 7.00006 20 7.00006ZM18 9.00006C18.2652 9.00006 18.5196 8.8947 18.7071 8.70717C18.8946 8.51963 19 8.26528 19 8.00006C19 7.73484 18.8946 7.48049 18.7071 7.29295C18.5196 7.10542 18.2652 7.00006 18 7.00006C17.7348 7.00006 17.4804 7.10542 17.2929 7.29295C17.1054 7.48049 17 7.73484 17 8.00006C17 8.26528 17.1054 8.51963 17.2929 8.70717C17.4804 8.8947 17.7348 9.00006 18 9.00006Z" fill="#EC2121"/>
</svg>
