<?xml version="1.0" encoding="utf-8"?>
<!-- Generator: Adobe Illustrator 22.1.0, SVG Export Plug-In . SVG Version: 6.00 Build 0)  -->
<svg version="1.1" id="Слой_1" xmlns="http://www.w3.org/2000/svg" xmlns:xlink="http://www.w3.org/1999/xlink" x="0px" y="0px"
	 viewBox="0 0 1607 713" style="enable-background:new 0 0 1607 713;" xml:space="preserve">
<style type="text/css">
	.st0{fill-rule:evenodd;clip-rule:evenodd;fill:url(#SVGID_1_);}
</style>
<linearGradient id="SVGID_1_" gradientUnits="userSpaceOnUse" x1="803.4803" y1="-39" x2="803.4803" y2="857.0357">
	<stop  offset="0" style="stop-color:#E21C1B"/>
	<stop  offset="1" style="stop-color:#B30506"/>
</linearGradient>
<path class="st0" d="M3,714.5c95.2,0,190.5,0,285.8,0c0-55.8,0-111.6,0-167.3c-35.3,0-70.5,0-105.8,0c0-183.1,0-366.3,0-549.4
	C92.6-1.7,86-1.5-0.1-0.6C-0.1,116,3,693.3,3,714.5L3,714.5z M1607.1-2.2c0,238.4,0,476.8,0,715.2c-14.4,4.8-39.4,1.6-56.8,1.6
	c-40,0-80,0-120,0c-3.8-11.5-1.6-31.5-1.6-45.8c0-31,0-62.1,0-93.1c0-103.1,0-206.3,0-309.4c-0.5,0-1.1,0-1.6,0
	c-1.3,10.9-7.5,19.8-11.1,28.4c-10.4,25-18.6,50.4-28.4,74.2c-31.7,76.6-57.2,155.1-88.4,230.5c-11.5,27.7-20.6,55.6-31.6,82.1
	c-3.7,11-7.4,22.1-11,33.2c-37.9,0-75.8,0-113.7,0c-2.3-11.4-8.5-21.9-12.6-31.6c-9.7-22.8-17.6-46.1-26.8-67.9
	c-27.1-64-49.7-129.6-75.8-192.6c-15.2-36.7-27.6-73.5-42.6-108.9c-5.5-13-7.2-30.7-15.8-41c0,98.4,0,196.8,0,295.2
	c0,31.6,0,63.2,0,94.7c0,17.1,1.2,37.6-1.6,52.1c-57.9,0-115.8,0-173.7,0c0-31.7-1.7-54.3-1.6-77.4c19.5-6.8,46.5-37.6,58.4-53.7
	c26.7-35.9,47.4-68.7,63.2-116.8c24.4-74.6,16.2-190.2-11-254.2c-15.7-36.8-39-66.5-61.6-96.3c-7.5-10-21.6-22.5-31.6-30
	c-4.7-3.5-14.9-7.3-17.4-12.6c0-24.7,0-49.5,0-74.2c25.5,0,171.7-1.6,233.7-1.6c57.9,144.2,115.8,288.4,173.7,432.6
	c1.3-1.6,0.6-0.4,1.6-3.2c6.1-8.5,6.7-19.6,11.1-30c8.8-21.3,15.9-43.8,25.3-66.3c30.7-73.7,57.8-152,88.4-225.8
	c10.4-25.1,18.5-50.3,28.4-74.2c3.7-11.1,7.4-22.1,11-33.2C1446-2.2,1526.6-2.2,1607.1-2.2L1607.1-2.2z M471.9,168.3
	c128.2-1.6,216.4,21.3,254.2,108.9c8.7,20.3,12.6,30.6,12.6,63.2c0,22.6,1,53.4-4.7,72.6c-6.8,22.7-17.2,44.4-30,61.6
	c-9.9,13.4-25.3,23.7-39.5,33.2c-52.1,34.7-104.1,39.6-192.6,39.5C471.9,420.9,471.9,294.6,471.9,168.3L471.9,168.3z"/>
</svg>
