<svg width="110" height="27" viewBox="0 0 110 27" fill="none" xmlns="http://www.w3.org/2000/svg">
<path d="M0 0.447512H6.08392V21.6298H19.2658V26.5525H0V0.447512Z" fill="#EC2121"/>
<path d="M34.9562 27C32.2271 27 29.761 26.4157 27.5578 25.2472C25.3796 24.0787 23.6646 22.4751 22.4128 20.4365C21.186 18.3729 20.5726 16.0608 20.5726 13.5C20.5726 10.9392 21.186 8.6395 22.4128 6.60083C23.6646 4.53729 25.3796 2.92127 27.5578 1.75276C29.761 0.584254 32.2271 0 34.9562 0C37.6852 0 40.1388 0.584254 42.3169 1.75276C44.4951 2.92127 46.2102 4.53729 47.462 6.60083C48.7138 8.6395 49.3397 10.9392 49.3397 13.5C49.3397 16.0608 48.7138 18.3729 47.462 20.4365C46.2102 22.4751 44.4951 24.0787 42.3169 25.2472C40.1388 26.4157 37.6852 27 34.9562 27ZM34.9562 21.8536C36.5084 21.8536 37.9105 21.5055 39.1623 20.8094C40.4142 20.0884 41.3906 19.0939 42.0916 17.826C42.8177 16.558 43.1807 15.116 43.1807 13.5C43.1807 11.884 42.8177 10.442 42.0916 9.17403C41.3906 7.90608 40.4142 6.92403 39.1623 6.2279C37.9105 5.50691 36.5084 5.14641 34.9562 5.14641C33.4039 5.14641 32.0018 5.50691 30.75 6.2279C29.4981 6.92403 28.5092 7.90608 27.7831 9.17403C27.0821 10.442 26.7316 11.884 26.7316 13.5C26.7316 15.116 27.0821 16.558 27.7831 17.826C28.5092 19.0939 29.4981 20.0884 30.75 20.8094C32.0018 21.5055 33.4039 21.8536 34.9562 21.8536Z" fill="#EC2121"/>
<path d="M71.6756 13.0898H77.2338V23.6809C75.8067 24.75 74.1543 25.5704 72.2765 26.1423C70.3988 26.7141 68.5085 27 66.6057 27C63.8767 27 61.4231 26.4282 59.2449 25.2845C57.0667 24.116 55.3517 22.5124 54.0998 20.4738C52.8731 18.4102 52.2597 16.0856 52.2597 13.5C52.2597 10.9144 52.8731 8.60221 54.0998 6.56354C55.3517 4.5 57.0792 2.89641 59.2824 1.75276C61.4857 0.584254 63.9643 0 66.7184 0C69.0217 0 71.1123 0.385359 72.9901 1.15608C74.8678 1.92679 76.4451 3.04558 77.722 4.51243L73.8163 8.09254C71.9385 6.12845 69.6727 5.14641 67.0188 5.14641C65.3413 5.14641 63.8517 5.49447 62.5497 6.19061C61.2478 6.88674 60.2338 7.86878 59.5078 9.13674C58.7817 10.4047 58.4187 11.8591 58.4187 13.5C58.4187 15.116 58.7817 16.558 59.5078 17.826C60.2338 19.0939 61.2353 20.0884 62.5122 20.8094C63.8141 21.5055 65.2913 21.8536 66.9437 21.8536C68.6963 21.8536 70.2736 21.4807 71.6756 20.7348V13.0898Z" fill="#EC2121"/>
<path d="M95.6164 27C92.8874 27 90.4213 26.4157 88.2181 25.2472C86.0399 24.0787 84.3248 22.4751 83.073 20.4365C81.8462 18.3729 81.2328 16.0608 81.2328 13.5C81.2328 10.9392 81.8462 8.6395 83.073 6.60083C84.3248 4.53729 86.0399 2.92127 88.2181 1.75276C90.4213 0.584254 92.8874 0 95.6164 0C98.3454 0 100.799 0.584254 102.977 1.75276C105.155 2.92127 106.87 4.53729 108.122 6.60083C109.374 8.6395 110 10.9392 110 13.5C110 16.0608 109.374 18.3729 108.122 20.4365C106.87 22.4751 105.155 24.0787 102.977 25.2472C100.799 26.4157 98.3454 27 95.6164 27ZM95.6164 21.8536C97.1687 21.8536 98.5707 21.5055 99.8226 20.8094C101.074 20.0884 102.051 19.0939 102.752 17.826C103.478 16.558 103.841 15.116 103.841 13.5C103.841 11.884 103.478 10.442 102.752 9.17403C102.051 7.90608 101.074 6.92403 99.8226 6.2279C98.5707 5.50691 97.1687 5.14641 95.6164 5.14641C94.0641 5.14641 92.6621 5.50691 91.4102 6.2279C90.1584 6.92403 89.1694 7.90608 88.4434 9.17403C87.7423 10.442 87.3918 11.884 87.3918 13.5C87.3918 15.116 87.7423 16.558 88.4434 17.826C89.1694 19.0939 90.1584 20.0884 91.4102 20.8094C92.6621 21.5055 94.0641 21.8536 95.6164 21.8536Z" fill="#EC2121"/>
</svg>
