<svg width="48" height="34" viewBox="0 0 48 34" fill="none" xmlns="http://www.w3.org/2000/svg">
<path d="M43.7084 6.01285C37.3685 -5.12593 27.8179 2.62345 27.8179 2.62345C27.1985 3.12406 26.0564 3.53565 25.2803 3.53756L22.7222 3.53948C21.9461 3.54043 20.804 3.12884 20.1855 2.62824C20.1855 2.62824 10.634 -5.12306 4.29323 6.01572C-2.04578 17.1507 0.508799 29.2773 0.508799 29.2773C0.956343 32.2464 2.43145 34.2278 5.21517 33.9789C7.99083 33.731 14.0157 25.9826 14.0157 25.9826C14.5133 25.3442 15.5561 24.8225 16.3304 24.8225L31.6668 24.8196C32.4419 24.8196 33.4838 25.3413 33.9806 25.9797C33.9806 25.9797 40.0063 33.7282 42.7865 33.9761C45.5666 34.2249 47.0453 32.2417 47.4901 29.2744C47.4892 29.2744 50.0483 17.1497 43.7084 6.01285ZM18.2369 15.0793H14.9483V18.4687C14.9483 18.4687 14.252 19.0373 13.1743 19.0229C12.0984 19.0057 11.6115 18.4027 11.6115 18.4027V15.0803H8.50551C8.50551 15.0803 8.11794 14.6553 8.01411 13.5363C7.91207 12.4174 8.44285 11.5128 8.44285 11.5128H11.7323V7.99614C11.7323 7.99614 12.409 7.60847 13.3819 7.63815C14.3558 7.67069 15.0692 8.06218 15.0692 8.06218L15.0558 11.5119H18.1617C18.1617 11.5119 18.7041 12.2566 18.7489 13.1563C18.7936 14.057 18.2369 15.0793 18.2369 15.0793ZM33.3209 18.9425C31.8807 18.9425 30.7198 17.6972 30.7198 16.159C30.7198 14.6179 31.8807 13.3755 33.3209 13.3755C34.7548 13.3755 35.9247 14.6179 35.9247 16.159C35.9247 17.6982 34.7548 18.9425 33.3209 18.9425ZM33.3209 11.2841C31.8807 11.2841 30.7198 10.0397 30.7198 8.50153C30.7198 6.96046 31.8807 5.71803 33.3209 5.71803C34.7548 5.71803 35.9247 6.96046 35.9247 8.50153C35.9247 10.0407 34.7548 11.2841 33.3209 11.2841ZM39.8031 15.3952C38.3629 15.3952 37.202 14.1508 37.202 12.6117C37.202 11.0716 38.3629 9.82819 39.8031 9.82819C41.2371 9.82819 42.4069 11.0716 42.4069 12.6117C42.4069 14.1508 41.2371 15.3952 39.8031 15.3952Z" fill="white"/>
</svg>
