<svg width="52" height="48" viewBox="0 0 52 48" fill="none" xmlns="http://www.w3.org/2000/svg">
<g clip-path="url(#clip0)">
<path d="M51.7073 15.6302L43.5824 5.13028C43.2574 4.74029 42.7699 4.50029 42.2499 4.50029H9.75022C9.23022 4.50029 8.74273 4.74029 8.41773 5.13028L0.292811 15.6302C0.195312 15.9002 0.0978131 16.1702 0.000314009 16.4402C-0.0321857 19.7701 2.89279 22.5001 6.50025 22.5001C8.45023 22.5001 10.1727 21.7201 11.3752 20.4601C12.5777 21.7201 14.3002 22.5001 16.2502 22.5001C18.2001 22.5001 19.9226 21.7201 21.1251 20.4601C22.3276 21.7201 24.0501 22.5001 26.0001 22.5001C27.95 22.5001 29.6725 21.7201 30.875 20.4601C32.0775 21.7201 33.8 22.5001 35.75 22.5001C37.6999 22.5001 39.4224 21.7201 40.6249 20.4601C41.8274 21.7201 43.5499 22.5001 45.4999 22.5001C49.1073 22.5001 52.0323 19.7701 51.9998 16.4402C51.9023 16.1702 51.8048 15.9002 51.7073 15.6302Z" fill="white"/>
<path d="M45.4999 25.5C43.7741 25.5 42.0939 25.074 40.6249 24.288C37.6869 25.857 33.813 25.857 30.875 24.288C27.937 25.857 24.0598 25.857 21.1251 24.288C18.1904 25.857 14.3099 25.857 11.3752 24.288C8.93447 25.596 5.912 25.764 3.25027 24.915V40.4999C3.25027 42.1559 4.70626 43.4998 6.50024 43.4998H32.5V28.5H42.2499V43.4998H45.4999C47.2938 43.4998 48.7498 42.1559 48.7498 40.4999V24.951C47.7163 25.29 46.6276 25.5 45.4999 25.5ZM22.7501 37.4999H9.75021V28.5H22.7501V37.4999Z" fill="white"/>
</g>
<defs>
<clipPath id="clip0">
<rect width="52" height="48" fill="white"/>
</clipPath>
</defs>
</svg>
