<svg width="42" height="49" viewBox="0 0 42 49" fill="none" xmlns="http://www.w3.org/2000/svg">
<path d="M27.8715 28.0371C25.7112 28.6 23.4183 28.9023 21.0472 28.9023C18.676 28.9023 16.3832 28.6 14.2228 28.0371V33.7016C14.2228 36.0033 13.7119 38.2506 12.7065 40.3867H29.3878C28.3824 38.2507 27.8715 36.0033 27.8715 33.7016V28.0371Z" fill="white"/>
<path d="M10.9954 43.2578C10.2424 44.2832 9.36901 45.2427 8.3805 46.1289H2.28021V49H39.8142V46.1289H33.714C32.7255 45.2427 31.8521 44.2832 31.0991 43.2578H10.9954Z" fill="white"/>
<path d="M41.1642 6.37555H38.0956V3.50446H41.5406L42 0H0.0943604L0.553753 3.50446H3.9988V6.37555H0.930116L1.38951 9.88001H40.705L41.1642 6.37555ZM11.5759 6.37555H7.78734V3.50446H11.5759V6.37555ZM19.153 6.37555H15.3644V3.50446H19.153V6.37555ZM26.7299 6.37555H22.9414V3.50446H26.7299V6.37555ZM34.307 6.37555H30.5185V3.50446H34.307V6.37555Z" fill="white"/>
<path d="M21.0472 26.0313C30.4848 26.0313 38.4673 20.4133 40.2567 12.751H1.83765C3.62711 20.4133 11.6096 26.0313 21.0472 26.0313V26.0313Z" fill="white"/>
</svg>
