<svg width="58" height="56" viewBox="0 0 58 56" fill="none" xmlns="http://www.w3.org/2000/svg">
<path d="M56.0771 20.1377L38.7207 17.6152L30.9619 1.88574C30.75 1.45507 30.4014 1.10644 29.9707 0.894526C28.8906 0.361323 27.5781 0.805659 27.0381 1.88574L19.2793 17.6152L1.92284 20.1377C1.44433 20.2061 1.00683 20.4316 0.671866 20.7734C0.266917 21.1896 0.0437711 21.7496 0.0514619 22.3303C0.0591527 22.9109 0.297051 23.4648 0.712881 23.8701L13.2705 36.1133L10.3037 53.4014C10.2341 53.8035 10.2786 54.2171 10.4322 54.5953C10.5857 54.9734 10.8421 55.301 11.1723 55.5408C11.5026 55.7807 11.8934 55.9232 12.3005 55.9522C12.7076 55.9813 13.1147 55.8956 13.4756 55.7051L29 47.543L44.5244 55.7051C44.9482 55.9307 45.4404 56.0059 45.9121 55.9238C47.1016 55.7187 47.9014 54.5908 47.6963 53.4014L44.7295 36.1133L57.2871 23.8701C57.6289 23.5352 57.8545 23.0977 57.9228 22.6191C58.1074 21.4228 57.2734 20.3154 56.0771 20.1377Z" fill="white"/>
</svg>
