<svg width="73" height="72" viewBox="0 0 73 72" fill="none" xmlns="http://www.w3.org/2000/svg">
<g clip-path="url(#clip0)">
<path d="M72.5891 23.4453L61.1829 7.69542C60.7267 7.11042 60.0423 6.75043 59.3123 6.75043H13.6878C12.9578 6.75043 12.2734 7.11042 11.8172 7.69542L0.411043 23.4453C0.27417 23.8503 0.137296 24.2553 0.000422334 24.6603C-0.0452022 29.6552 4.06101 33.7502 9.12533 33.7502C11.8628 33.7502 14.2809 32.5802 15.969 30.6902C17.6571 32.5802 20.0752 33.7502 22.8127 33.7502C25.5502 33.7502 27.9683 32.5802 29.6564 30.6902C31.3445 32.5802 33.7626 33.7502 36.5001 33.7502C39.2375 33.7502 41.6556 32.5802 43.3437 30.6902C45.0319 32.5802 47.45 33.7502 50.1874 33.7502C52.9249 33.7502 55.343 32.5802 57.0311 30.6902C58.7192 32.5802 61.1373 33.7502 63.8748 33.7502C68.9391 33.7502 73.0453 29.6552 72.9997 24.6603C72.8628 24.2553 72.726 23.8503 72.5891 23.4453Z" fill="white"/>
<path d="M63.8748 38.25C61.4521 38.25 59.0933 37.6111 57.0311 36.4321C52.9067 38.7855 47.4682 38.7855 43.3438 36.4321C39.2193 38.7855 33.7763 38.7855 29.6564 36.4321C25.5365 38.7855 20.0889 38.7855 15.969 36.4321C12.5426 38.394 8.29953 38.646 4.56288 37.3726V60.7498C4.56288 63.2338 6.60686 65.2498 9.12534 65.2498H45.625V42.75H59.3123V65.2498H63.8748C66.3933 65.2498 68.4373 63.2338 68.4373 60.7498V37.4266C66.9864 37.9351 65.458 38.25 63.8748 38.25ZM31.9376 56.2499H13.6878V42.75H31.9376V56.2499Z" fill="white"/>
</g>
<defs>
<clipPath id="clip0">
<rect width="73" height="72" fill="white"/>
</clipPath>
</defs>
</svg>
