<svg width="58" height="34" viewBox="0 0 58 34" fill="none" xmlns="http://www.w3.org/2000/svg">
<path fill-rule="evenodd" clip-rule="evenodd" d="M56.6708 2.37431C57.072 1.05481 56.6708 0.083313 54.7496 0.083313H48.4058C46.7915 0.083313 46.0472 0.921896 45.6436 1.84748C45.6436 1.84748 42.4173 9.57115 37.8474 14.5881C36.3684 16.043 35.6966 16.5046 34.8894 16.5046C34.4858 16.5046 33.8792 16.043 33.8792 14.7211V2.37431C33.8792 0.78898 33.4346 0.083313 32.0909 0.083313H22.1149C21.1072 0.083313 20.5006 0.81798 20.5006 1.5164C20.5006 3.01715 22.7868 3.36515 23.0212 7.58948V16.768C23.0212 18.7811 22.6514 19.146 21.8442 19.146C19.6934 19.146 14.4613 11.3861 11.3559 2.50723C10.7542 0.779313 10.1452 0.083313 8.52358 0.083313H2.175C0.3625 0.083313 0 0.921896 0 1.84748C0 3.49565 2.15083 11.6833 10.0171 22.5124C15.2613 29.9074 22.6442 33.9166 29.3698 33.9166C33.4032 33.9166 33.901 33.0273 33.901 31.4927V25.903C33.901 24.1219 34.2828 23.7666 35.5613 23.7666C36.5037 23.7666 38.1157 24.2306 41.8808 27.7952C46.1825 32.022 46.8906 33.9166 49.3121 33.9166H55.6558C57.4683 33.9166 58.377 33.0273 57.855 31.268C57.2798 29.5183 55.2257 26.9784 52.5021 23.9648C51.0231 22.249 48.8046 20.4002 48.1303 19.4746C47.1903 18.2881 47.4585 17.7588 48.1303 16.7027C48.1303 16.7027 55.8637 6.00656 56.6684 2.37431H56.6708Z" fill="white"/>
</svg>
